<svg width="12" height="12" viewBox="0 0 12 12" fill="none" xmlns="http://www.w3.org/2000/svg">
<path d="M5.9994 4.0001V6.0001M5.9994 8.0001H6.0044M5.1444 1.4301L0.9094 8.5001C0.822084 8.65131 0.775883 8.82275 0.775395 8.99736C0.774906 9.17197 0.820145 9.34367 0.906613 9.49537C0.993081 9.64706 1.11776 9.77348 1.26825 9.86203C1.41875 9.95058 1.5898 9.99818 1.7644 10.0001H10.2344C10.409 9.99818 10.5801 9.95058 10.7305 9.86203C10.881 9.77348 11.0057 9.64706 11.0922 9.49537C11.1787 9.34367 11.2239 9.17197 11.2234 8.99736C11.2229 8.82275 11.1767 8.65131 11.0894 8.5001L6.8544 1.4301C6.76526 1.28316 6.63976 1.16166 6.49 1.07734C6.34023 0.993026 6.17127 0.94873 5.9994 0.94873C5.82753 0.94873 5.65857 0.993026 5.5088 1.07734C5.35904 1.16166 5.23354 1.28316 5.1444 1.4301Z" stroke="black" stroke-width="1.5" stroke-linecap="round" stroke-linejoin="round"/>
</svg>
