<svg width="21" height="20" viewBox="0 0 21 20" fill="none" xmlns="http://www.w3.org/2000/svg">
<path d="M17.1668 8.75008V5.66675C17.1668 4.26662 17.1668 3.56655 16.8943 3.03177C16.6547 2.56137 16.2722 2.17892 15.8018 1.93923C15.267 1.66675 14.567 1.66675 13.1668 1.66675H7.8335C6.43336 1.66675 5.7333 1.66675 5.19852 1.93923C4.72811 2.17892 4.34566 2.56137 4.10598 3.03177C3.8335 3.56655 3.8335 4.26662 3.8335 5.66675V14.3334C3.8335 15.7335 3.8335 16.4336 4.10598 16.9684C4.34566 17.4388 4.72811 17.8212 5.19852 18.0609C5.7333 18.3334 6.43336 18.3334 7.8335 18.3334H10.5002M15.5002 17.5001V12.5001M13.0002 15.0001H18.0002" stroke="black" stroke-opacity="0.3" stroke-width="1.66667" stroke-linecap="round" stroke-linejoin="round"/>
</svg>
