<svg width="14" height="14" viewBox="0 0 14 14" fill="none" xmlns="http://www.w3.org/2000/svg">
<path d="M8.16732 1.32397V3.73346C8.16732 4.06015 8.16732 4.2235 8.2309 4.34828C8.28682 4.45805 8.37606 4.54728 8.48582 4.60321C8.61061 4.66679 8.77395 4.66679 9.10065 4.66679H11.5101M9.33398 7.58342H4.66732M9.33398 9.91675H4.66732M5.83398 5.25008H4.66732M8.16732 1.16675H5.13398C4.15389 1.16675 3.66385 1.16675 3.2895 1.35749C2.96022 1.52527 2.6925 1.79298 2.52472 2.12226C2.33398 2.49661 2.33398 2.98666 2.33398 3.96675V10.0334C2.33398 11.0135 2.33398 11.5036 2.52472 11.8779C2.6925 12.2072 2.96022 12.4749 3.2895 12.6427C3.66385 12.8334 4.15389 12.8334 5.13398 12.8334H8.86732C9.84741 12.8334 10.3375 12.8334 10.7118 12.6427C11.0411 12.4749 11.3088 12.2072 11.4766 11.8779C11.6673 11.5036 11.6673 11.0135 11.6673 10.0334V4.66675L8.16732 1.16675Z" stroke="black" stroke-width="1.16667" stroke-linecap="round" stroke-linejoin="round"/>
</svg>
