<svg width="16" height="16" viewBox="0 0 16 16" fill="none" xmlns="http://www.w3.org/2000/svg">
<path d="M13.9653 1H2.03471C1.46377 1 1 1.4499 1 2.00262V13.9974C1 14.5519 1.46377 15 2.03471 15H13.9653C14.5362 15 15 14.5501 15 13.9974V2.00262C15 1.44806 14.5362 1 13.9653 1ZM5.24416 12.7211H3.13039V6.39874H5.24416V12.7211ZM4.18728 5.53568H4.17434C3.46483 5.53568 3.0066 5.05089 3.0066 4.44307C3.0066 3.83526 3.47961 3.35047 4.20206 3.35047C4.92451 3.35047 5.3698 3.8224 5.38458 4.44307C5.38458 5.04906 4.92636 5.53568 4.18913 5.53568H4.18728ZM12.8696 12.7211H10.7558V9.33867C10.7558 8.48846 10.4491 7.90818 9.68418 7.90818C9.1003 7.90818 8.75294 8.29932 8.59958 8.6776C8.54415 8.81348 8.52937 9.00079 8.52937 9.18993V12.7211H6.4156C6.4156 12.7211 6.44332 6.99187 6.4156 6.39874H8.52937V7.29486C8.81022 6.86333 9.31279 6.25184 10.4343 6.25184C11.8257 6.25184 12.8696 7.1553 12.8696 9.09811V12.723V12.7211Z" fill="black"/>
</svg>
