<svg width="14" height="14" viewBox="0 0 14 14" fill="none" xmlns="http://www.w3.org/2000/svg">
<path d="M9.33268 2.02286C10.197 2.4524 10.791 3.34433 10.791 4.375C10.791 5.40567 10.197 6.2976 9.33268 6.72714M10.4993 9.78039C11.381 10.1794 12.175 10.8296 12.8327 11.6667M1.16602 11.6667C2.30147 10.2215 3.84304 9.33333 5.54102 9.33333C7.23899 9.33333 8.78056 10.2215 9.91602 11.6667M8.16602 4.375C8.16602 5.82475 6.99076 7 5.54102 7C4.09127 7 2.91602 5.82475 2.91602 4.375C2.91602 2.92525 4.09127 1.75 5.54102 1.75C6.99076 1.75 8.16602 2.92525 8.16602 4.375Z" stroke="black" stroke-width="1.16667" stroke-linecap="round" stroke-linejoin="round"/>
</svg>
