<svg width="16" height="16" viewBox="0 0 16 16" fill="none" xmlns="http://www.w3.org/2000/svg">
<g clip-path="url(#clip0_662_6392)">
<path d="M8.04453 0.800049C3.98635 0.800049 0.666016 4.12313 0.666016 8.18466C0.666016 11.2308 2.51065 13.8154 5.09313 14.9231C5.09313 14.3693 5.09312 13.8154 5.18535 13.2616C5.36981 12.6154 6.10766 9.20005 6.10766 9.20005C6.10766 9.20005 5.83098 8.73851 5.83098 8.00005C5.83098 6.89236 6.4766 6.06159 7.21445 6.06159C7.86007 6.06159 8.22899 6.52313 8.22899 7.16928C8.22899 7.81543 7.76783 8.83082 7.58337 9.7539C7.39891 10.4924 7.9523 11.1385 8.78238 11.1385C10.1659 11.1385 11.0882 9.38466 11.0882 7.16928C11.0882 5.50774 9.98139 4.30774 8.04453 4.30774C5.83098 4.30774 4.44751 5.96928 4.44751 7.81543C4.44751 8.46159 4.63197 8.92313 4.90867 9.29236C5.0009 9.47697 5.09312 9.47697 5.00089 9.66159C5.00089 9.7539 4.90866 10.1231 4.81643 10.2154C4.7242 10.4 4.63197 10.4924 4.44751 10.4C3.43296 9.93851 2.9718 8.83082 2.9718 7.53851C2.9718 5.41543 4.7242 2.92313 8.22899 2.92313C11.0882 2.92313 12.9328 4.95389 12.9328 7.16928C12.9328 10.0308 11.3649 12.2462 8.96684 12.2462C8.13676 12.2462 7.39891 11.7847 7.12221 11.3231C7.12221 11.3231 6.66105 12.9847 6.56882 13.3539C6.38436 13.9077 6.10768 14.4616 5.83098 14.9231C6.4766 15.1077 7.21444 15.2 7.95229 15.2C12.0105 15.2 15.3308 11.877 15.3308 7.81543C15.423 4.12313 12.1027 0.800049 8.04453 0.800049Z" fill="black"/>
</g>
<defs>
<clipPath id="clip0_662_6392">
<rect width="16" height="16" fill="white"/>
</clipPath>
</defs>
</svg>
