<svg width="28" height="37" viewBox="0 0 28 37" fill="none" xmlns="http://www.w3.org/2000/svg">
<path d="M21.3861 3.5L16.1573 10.8341H11.6557L6.43092 3.5L1 19.5836L8.77461 27.1349L10.492 33.5H17.3291L19.0465 27.1349L26.8171 19.5756L21.3861 3.5ZM25.5603 18.3774L22.0206 15.4582L20.1618 10.4682L18.8242 12.8325L16.8725 11.2242L21.1275 5.24105L25.5603 18.3774ZM18.3312 19.8973L14.5652 14.9757L16.3674 11.8474L25.2573 19.1655L18.3312 19.8973ZM13.9065 14.4891L12.2538 11.6263H15.5592L13.9065 14.4891ZM9.48581 19.8973L2.57189 19.1655L11.4618 11.8474L13.264 14.9757L9.48581 19.8973ZM6.68953 5.24105L10.9446 11.2201L8.99282 12.8285L7.6553 10.4682L5.80054 15.4622L2.26075 18.3814L6.68953 5.24105ZM9.49389 26.7127L2.56785 19.9737L7.41689 20.4883L9.94242 23.0657V20.5929C9.95784 20.5845 9.97269 20.5751 9.98687 20.5647L13.5024 15.9729V30.81L11.2719 32.6958H11.1062L9.49389 26.7127ZM18.3232 26.7127L16.7068 32.6918H16.5452L14.3106 30.806V15.9729L17.7696 20.5004V23.0657L20.283 20.5004L25.2452 19.9737L18.3232 26.7127Z" fill="url(#paint0_linear_2020_7878)"/>
<defs>
<linearGradient id="paint0_linear_2020_7878" x1="1" y1="3.5" x2="26.8171" y2="3.5" gradientUnits="userSpaceOnUse">
<stop stop-color="#834F2A"/>
<stop offset="0.5" stop-color="#DBA173"/>
<stop offset="1" stop-color="#834F2A"/>
</linearGradient>
</defs>
</svg>
