<svg width="163" height="37" viewBox="0 0 163 37" fill="none" xmlns="http://www.w3.org/2000/svg">
<g clip-path="url(#clip0_1849_3721)">
<path d="M21.3861 3.5L16.1573 10.8341H11.6557L6.43092 3.5L1 19.5836L8.77461 27.1349L10.492 33.5H17.3291L19.0465 27.1349L26.8171 19.5756L21.3861 3.5ZM25.5603 18.3774L22.0206 15.4582L20.1618 10.4682L18.8242 12.8325L16.8725 11.2242L21.1275 5.24105L25.5603 18.3774ZM18.3312 19.8973L14.5652 14.9757L16.3674 11.8474L25.2573 19.1655L18.3312 19.8973ZM13.9065 14.4891L12.2538 11.6263H15.5592L13.9065 14.4891ZM9.48581 19.8973L2.57189 19.1655L11.4618 11.8474L13.264 14.9757L9.48581 19.8973ZM6.68953 5.24105L10.9446 11.2201L8.99282 12.8285L7.6553 10.4682L5.80054 15.4622L2.26075 18.3814L6.68953 5.24105ZM9.49389 26.7127L2.56785 19.9737L7.41689 20.4883L9.94242 23.0657V20.5929C9.95784 20.5845 9.97269 20.5751 9.98687 20.5647L13.5024 15.9729V30.81L11.2719 32.6958H11.1062L9.49389 26.7127ZM18.3232 26.7127L16.7068 32.6918H16.5452L14.3106 30.806V15.9729L17.7696 20.5004V23.0657L20.283 20.5004L25.2452 19.9737L18.3232 26.7127Z" fill="url(#paint0_linear_1849_3721)"/>
<path d="M41.6968 26.3091C38.4612 26.3091 36.0397 24.7738 35.5469 22.0872L38.1825 21.4796C38.4611 23.228 39.9075 24.1875 41.7931 24.1875C43.2824 24.1875 44.6324 23.5585 44.611 21.9594C44.5896 20.2963 42.736 19.8165 40.7324 19.2514C38.4182 18.5797 36.0397 17.8121 36.0397 15.0188C36.0397 12.1829 38.3754 10.6904 41.2789 10.6904C43.9574 10.6904 46.4967 11.8099 47.086 14.5391L44.611 15.1575C44.2681 13.537 43.0039 12.8227 41.4075 12.8227C39.9825 12.8227 38.6325 13.4303 38.6325 14.9763C38.6325 16.3836 40.2504 16.8207 42.1039 17.3324C44.4932 17.9934 47.2575 18.8037 47.2575 21.8527C47.2575 24.9978 44.6111 26.3091 41.6968 26.3091ZM63.5834 26.1065L58.4728 19.358H57.23V26.1065H54.6693V10.9034H57.23V17.0975H58.4514L63.4763 10.9034H66.6155L60.6585 18.1637L66.862 26.1063L63.5834 26.1065ZM84.3988 10.9034L79.3739 18.846V26.1063H76.8024V18.878L71.7561 10.9034H74.6275L78.0774 16.5859L81.5381 10.9034H84.3988ZM93.6431 26.1065L89.4646 10.9034H92.1324L95.4323 22.9187L99.0429 10.9034H101.25L104.85 22.9187L108.171 10.9034H110.828L106.65 26.1065H103.457L100.146 15.5733L96.8357 26.1065H93.6431ZM124.401 26.3091C120.008 26.3091 116.687 23.3133 116.687 18.4944C116.687 13.6862 120.008 10.6905 124.401 10.6905C128.783 10.6905 132.105 13.6862 132.105 18.4944C132.105 23.3133 128.783 26.3091 124.401 26.3091ZM124.401 23.9423C127.294 23.9423 129.555 21.9487 129.555 18.4945C129.555 15.0722 127.294 13.0679 124.401 13.0679C121.508 13.0679 119.248 15.0722 119.248 18.4945C119.248 21.9488 121.508 23.9423 124.401 23.9423ZM142.109 23.8251H147.156V26.1065H139.549V10.9034H142.109V23.8251ZM162.646 13.1742H156.593V17.3747H161.843V19.6349H156.593V26.1062H154V10.9031H162.646V13.1742Z" fill="white"/>
</g>
<defs>
<linearGradient id="paint0_linear_1849_3721" x1="1" y1="3.5" x2="26.8171" y2="3.5" gradientUnits="userSpaceOnUse">
<stop stop-color="#834F2A"/>
<stop offset="0.5" stop-color="#DBA173"/>
<stop offset="1" stop-color="#834F2A"/>
</linearGradient>
<clipPath id="clip0_1849_3721">
<rect width="162.89" height="37" fill="white"/>
</clipPath>
</defs>
</svg>
