<svg width="169" height="38" viewBox="0 0 169 38" fill="none" xmlns="http://www.w3.org/2000/svg">
<path d="M22.1879 3.59448L16.7629 11.1268H12.0925L6.67173 3.59448L1.03711 20.1128L9.10334 27.8682L10.8851 34.4053H17.9787L19.7605 27.8682L27.8225 20.1046L22.1879 3.59448ZM26.5187 18.8739L22.8461 15.8759L20.9176 10.751L19.5299 13.1792L17.505 11.5274L21.9196 5.38259L26.5187 18.8739ZM19.0184 20.4349L15.1111 15.3803L16.9809 12.1675L26.2042 19.6833L19.0184 20.4349ZM14.4277 14.8806L12.713 11.9404H16.1424L14.4277 14.8806ZM9.8412 20.4349L2.66796 19.6833L11.8913 12.1675L13.7611 15.3803L9.8412 20.4349ZM6.94005 5.38259L11.3547 11.5233L9.32973 13.1751L7.94204 10.751L6.01771 15.88L2.34515 18.8781L6.94005 5.38259ZM9.84959 27.4346L2.66377 20.5134L7.69468 21.042L10.3149 23.689V21.1493C10.3309 21.1407 10.3463 21.131 10.3611 21.1204L14.0085 16.4044V31.6426L11.6943 33.5794H11.5224L9.84959 27.4346ZM19.01 27.4346L17.3331 33.5752H17.1654L14.847 31.6385V16.4044L18.4357 21.0544V23.689L21.0434 21.0544L26.1917 20.5134L19.01 27.4346Z" fill="url(#paint0_linear_2020_13918)"/>
<path d="M43.2605 27.02C39.9035 27.02 37.3912 25.4433 36.8799 22.6841L39.6144 22.06C39.9034 23.8557 41.4041 24.8411 43.3604 24.8411C44.9055 24.8411 46.3062 24.1951 46.284 22.5527C46.2617 20.8447 44.3387 20.3519 42.2599 19.7716C39.8589 19.0818 37.3912 18.2934 37.3912 15.4246C37.3912 12.5121 39.8145 10.9792 42.8269 10.9792C45.6059 10.9792 48.2404 12.1289 48.8518 14.932L46.284 15.567C45.9283 13.9027 44.6166 13.1691 42.9603 13.1691C41.4819 13.1691 40.0813 13.7932 40.0813 15.3809C40.0813 16.8263 41.7598 17.2752 43.6829 17.8007C46.1617 18.4796 49.0297 19.3118 49.0297 22.4432C49.0297 25.6733 46.2841 27.02 43.2605 27.02ZM65.968 26.812L60.6657 19.8811H59.3763V26.812H56.7195V11.198H59.3763V17.5595H60.6435L65.8569 11.198H69.1139L62.9334 18.6545L69.3695 26.8118L65.968 26.812ZM87.5642 11.198L82.3508 19.3553V26.8118H79.6829V19.3881L74.4473 11.198H77.4263L81.0057 17.034L84.5961 11.198H87.5642ZM97.1552 26.812L92.82 11.198H95.5878L99.0115 23.5381L102.758 11.198H105.047L108.782 23.5381L112.228 11.198H114.985L110.65 26.812H107.337L103.902 15.9941L100.468 26.812H97.1552ZM129.067 27.02C124.509 27.02 121.063 23.9433 121.063 18.9942C121.063 14.056 124.509 10.9793 129.067 10.9793C133.613 10.9793 137.059 14.056 137.059 18.9942C137.059 23.9433 133.613 27.02 129.067 27.02ZM129.067 24.5893C132.068 24.5893 134.414 22.5417 134.414 18.9942C134.414 15.4795 132.068 13.421 129.067 13.421C126.066 13.421 123.72 15.4795 123.72 18.9942C123.72 22.5419 126.066 24.5893 129.067 24.5893ZM147.439 24.4689H152.675V26.812H144.783V11.198H147.439V24.4689ZM168.746 13.5301H162.466V17.8442H167.913V20.1654H162.466V26.8117H159.776V11.1976H168.746V13.5301Z" fill="#1D2939"/>
<defs>
<linearGradient id="paint0_linear_2020_13918" x1="1.03711" y1="3.59448" x2="27.8225" y2="3.59448" gradientUnits="userSpaceOnUse">
<stop stop-color="#834F2A"/>
<stop offset="0.5" stop-color="#DBA173"/>
<stop offset="1" stop-color="#834F2A"/>
</linearGradient>
</defs>
</svg>
